<svg id="Layer_1" data-name="Layer 1" xmlns="http://www.w3.org/2000/svg" viewBox="0 0 100 100"><defs><style>.cls-1{fill:#f90;}</style></defs><path class="cls-1" d="M28.52,39.62c-.24-.3-.53-.59-.77-.88C22.5,33.63,17.31,22.47,8.63,24.59a2.18,2.18,0,0,0-1.24.58,5.47,5.47,0,0,0-.65,1.47c-.06.12-.06.29-.12.47a1.27,1.27,0,0,0,.06.47c1.54,1.47,2.83,2.94,4.72,5.05A26.37,26.37,0,0,1,14.06,36a3.33,3.33,0,0,1,.47,2.23c2.83,3.34,5.73,6.75,8.5,10.1.94,1.17,1.83,2.23,2.66,3.29.23-1,.47-1.94.7-2.94C27.16,45.72,27.81,42.67,28.52,39.62Z"/><path class="cls-1" d="M34.72,48.72c2.77-3.47,5.6-7.11,9-9.92A12.09,12.09,0,0,1,43,34.45c-.12-3.11.94-6.11,2-9,1.3-3.7,3.13-7.23,4.13-11a22.89,22.89,0,0,0,.65-8.69,14.87,14.87,0,0,0-1.6-4.64c-.35,1-.76,2.05-1.29,3.35a11.72,11.72,0,0,1-1.6,2.75,3.67,3.67,0,0,1-3.13.89c-.17.41-.35.76-.53,1.11C37.2,18.54,32.89,28.05,30.17,38c-1.65,7.11-3.36,14.15-5,21.26-.12.47-.24,1-.36,1.58,1.36-1.82,2.89-3.52,4.25-5.22C31,53.36,32.89,51.07,34.72,48.72Z"/><path class="cls-1" d="M37.14,69.39a17.34,17.34,0,0,1-4.08,2.29,31.63,31.63,0,0,1,4.08-3.76,53.56,53.56,0,0,0,6.55-6.58,38.68,38.68,0,0,0,4.6-6.87c.53-.88,1-1.82,1.42-2.76.29-.88.71-1.7,1-2.58a2.28,2.28,0,0,1,.3-.65,13.25,13.25,0,0,1-1.48-.11c1.24-.47,2.6-.88,3.9-1.24a59.22,59.22,0,0,0,13.75-4.69c3.07-1.65,6.43-3.88,7.38-7.4a1.42,1.42,0,0,0,.12-.47c-.89.29-1.83.53-3,.82a12.77,12.77,0,0,1-3.6.47c-1.72-.18-3.31-2.06-3.25-3.29a6.74,6.74,0,0,0-1.06.24C52.37,34.69,46.29,36,38.85,45.43c-2.89,3.52-5.73,7-8.68,10.51C26.93,60,22.38,64.1,22.62,69.68c.29,3.41,2.18,6.4,3.54,9.51,1.95,4,4.54,7.58,6.26,11.63A35.92,35.92,0,0,1,35.84,99c.06.35.18.71.23,1.06.48-6.4,1.19-12.8,2.19-19.2A20.77,20.77,0,0,0,39,77.79c-.24-1.3-.42-2.59-.71-3.88C38,72.38,37.49,70.91,37.14,69.39Z"/><path class="cls-1" d="M46.11,60.29a44.73,44.73,0,0,1-4.31,5,46.55,46.55,0,0,1-3.6,3.34,4.47,4.47,0,0,1,.29,1,52,52,0,0,1,1.19,5.29c1.47-5.17,4-7.52,9.85-10.87-.94-1.05-2-2.11-2.89-3.17C46.46,60.7,46.29,60.46,46.11,60.29Z"/><path class="cls-1" d="M72.73,48.66a4.86,4.86,0,0,0-.83,2.17c0,.12.06.36.06.41A26.6,26.6,0,0,0,73,53.89a57,57,0,0,1,10-1.41,46.93,46.93,0,0,0-3.66-3.23C77.57,47.78,74.15,45.61,72.73,48.66Z"/><path class="cls-1" d="M75.44,65.63c-2.83.29-5.66.29-8.5.7-3.48.59-5.66,3.47-7.67,6.11-.06.12-.18.24-.23.35.29.3.59.65.82.94a25.35,25.35,0,0,0,10.39,7.7c4.54,1.58,9.62,1,14.22-.12A75.89,75.89,0,0,0,92.56,79l-.12-.12c-4-4.64-8-9.28-12.1-13.86A35.24,35.24,0,0,1,75.44,65.63Z"/></svg>